<?xml version="1.0" encoding="iso-8859-1"?>
<!-- Generator: Adobe Illustrator 19.0.0, SVG Export Plug-In . SVG Version: 6.00 Build 0)  -->
<svg version="1.1" id="Layer_1" xmlns="http://www.w3.org/2000/svg" xmlns:xlink="http://www.w3.org/1999/xlink" x="0px" y="0px"
	 viewBox="0 0 472.615 472.615" style="enable-background:new 0 0 472.615 472.615;" xml:space="preserve">
<g>
	<g>
		<path d="M398.239,235.891l-0.278-1.111C357.041,106.465,235.114,15.368,229.929,11.572L214.191,0l1.019,19.441
			c0,0.834,2.869,76.193-70.176,138.868c-79.34,68.138-78.878,124.334-78.692,154.515l0.094,4.166
			c0,82.302,60.399,143.839,146.811,153.984c-4.704-0.739-9.509-1.698-14.331-3.172c-27.867-8.61-44.16-28.144-47.308-56.289
			l-0.74-5.554c-2.5-21.756-5.74-48.697,41.845-99.801c17.775-19.071,33.236-39.624,46.012-61.01l6.388-10.738l8.424,9.257
			c25.182,27.495,44.438,55.269,57.399,82.302c11.942,23.886,12.684,61.659,11.757,69.713
			c-4.536,41.105-34.254,71.749-74.063,76.192c-2.595,0.296-6.479,0.583-11.234,0.689c0.418,0.003,0.816,0.051,1.236,0.051
			c94.06,0,167.66-75.637,167.66-172.197C406.293,277.274,398.516,237.557,398.239,235.891z"/>
	</g>
</g>
<g>
</g>
<g>
</g>
<g>
</g>
<g>
</g>
<g>
</g>
<g>
</g>
<g>
</g>
<g>
</g>
<g>
</g>
<g>
</g>
<g>
</g>
<g>
</g>
<g>
</g>
<g>
</g>
<g>
</g>
</svg>
