<?xml version="1.0" encoding="iso-8859-1"?>
<!-- Generator: Adobe Illustrator 16.0.0, SVG Export Plug-In . SVG Version: 6.00 Build 0)  -->
<!DOCTYPE svg PUBLIC "-//W3C//DTD SVG 1.1//EN" "http://www.w3.org/Graphics/SVG/1.1/DTD/svg11.dtd">
<svg version="1.1" id="Capa_1" xmlns="http://www.w3.org/2000/svg" xmlns:xlink="http://www.w3.org/1999/xlink" x="0px" y="0px"
	 width="305.499px" height="305.498px" viewBox="0 0 305.499 305.498" style="enable-background:new 0 0 305.499 305.498;"
	 xml:space="preserve">
<g>
	<path d="M57.171,212.603c-34.905,13.926-55.519,44.482-46.035,68.246c9.49,23.752,45.468,31.727,80.381,17.789
		c24.157-9.646,41.449-27.246,46.677-45.048c1.108-2.079,1.737-4.448,1.737-6.957V113.134l127.056-23.538v112.767
		c-15.128-4.248-34.256-3.113-53.066,4.4c-34.912,13.922-55.517,44.479-46.045,68.23c9.481,23.764,45.468,31.723,80.381,17.793
		c24.164-9.654,41.469-27.255,46.69-45.056c1.094-2.076,1.724-4.44,1.724-6.945V60.855c0-0.938-0.093-1.851-0.261-2.747V9.312
		c0-5.142-4.172-9.312-9.306-9.312L119.489,31.042c-5.16,0-9.328,4.166-9.328,9.309v67.247c0,0.261,0.054,0.495,0.076,0.755v99.849
		C95.127,203.958,75.996,205.093,57.171,212.603z"/>
</g>
<g>
</g>
<g>
</g>
<g>
</g>
<g>
</g>
<g>
</g>
<g>
</g>
<g>
</g>
<g>
</g>
<g>
</g>
<g>
</g>
<g>
</g>
<g>
</g>
<g>
</g>
<g>
</g>
<g>
</g>
</svg>
