<?xml version='1.0' encoding='iso-8859-1'?>
<!DOCTYPE svg PUBLIC '-//W3C//DTD SVG 1.1//EN' 'http://www.w3.org/Graphics/SVG/1.1/DTD/svg11.dtd'>
<svg version="1.1" xmlns="http://www.w3.org/2000/svg" viewBox="0 0 296.228 296.228" xmlns:xlink="http://www.w3.org/1999/xlink" enable-background="new 0 0 296.228 296.228">
  <path d="m167.364,48.003v-23.003h10.5c6.903,0 12.5-5.597 12.5-12.5s-5.596-12.5-12.5-12.5h-59.5c-6.903,0-12.5,5.597-12.5,12.5s5.597,12.5 12.5,12.5h10.5v23.003c-59.738,9.285-105.604,61.071-105.604,123.37-3.55271e-15,68.845 56.01,124.855 124.854,124.855 68.845,0 124.854-56.01 124.854-124.855 0-62.299-45.866-114.086-105.604-123.37zm23.148,165.589c-2.442,2.452-5.65,3.68-8.857,3.68-3.19,0-6.381-1.214-8.82-3.643l-33.54-33.398c-2.355-2.346-3.68-5.533-3.68-8.857v-64.082c0-6.903 5.597-12.5 12.5-12.5 6.903,0 12.5,5.597 12.5,12.5v58.889l29.86,29.734c4.891,4.87 4.908,12.785 0.037,17.677z"/>
</svg>
